<?xml version="1.0" encoding="utf-8"?><svg viewBox="0 0 148 48" xmlns="http://www.w3.org/2000/svg" xmlns:xlink="http://www.w3.org/1999/xlink"><style>:root>svg{display:none}:root>svg:target{display:block}</style><svg fill="none" viewBox="0 0 26 25" id="favicon" xmlns="http://www.w3.org/2000/svg"><path fill-rule="evenodd" clip-rule="evenodd" d="M5.5 5v15h15L5.5 5zm-5-5v25h25V0H.5z" fill="#FF6E30"/></svg><svg fill="none" viewBox="0 0 12 14" id="icons-sprite--calendar" xmlns="http://www.w3.org/2000/svg"><path d="M10.666 1.75h-.583V.583H8.916V1.75H3.083V.583H1.916V1.75h-.583A1.17 1.17 0 00.167 2.917v9.333a1.17 1.17 0 001.166 1.167h9.334a1.17 1.17 0 001.166-1.167V2.917a1.17 1.17 0 00-1.167-1.167zm0 10.5H1.333V4.667h9.333v7.583z" fill="#999"/></svg><svg fill="none" viewBox="0 0 14 14" id="icons-sprite--calendar-white" xmlns="http://www.w3.org/2000/svg"><g clip-path="url(#cclip0_41399_654)"><path d="M11.666 1.75h-.583V.583H9.916V1.75H4.083V.583H2.916V1.75h-.583a1.17 1.17 0 00-1.167 1.167v9.333a1.17 1.17 0 001.167 1.167h9.334a1.17 1.17 0 001.166-1.167V2.917a1.17 1.17 0 00-1.167-1.167zm0 10.5H2.333V4.667h9.333v7.583z" fill="#fff"/></g><defs><clipPath id="cclip0_41399_654"><path fill="#fff" d="M0 0h14v14H0z"/></clipPath></defs></svg><svg fill="none" viewBox="0 0 30 30" id="icons-sprite--classmates" xmlns="http://www.w3.org/2000/svg"><path d="M12.853 9.99a2.24 2.24 0 104.478 0 2.24 2.24 0 00-4.478 0z" fill="#CACACA"/><path fill-rule="evenodd" clip-rule="evenodd" d="M15 30c8.284 0 15-6.716 15-15 0-8.284-6.716-15-15-15C6.716 0 0 6.716 0 15c0 8.284 6.716 15 15 15zM9.675 9.99a5.417 5.417 0 1110.834 0 5.417 5.417 0 01-10.834 0zm10.866 8.204c-.069.055-1.368 1.082-3.537 1.524l3.274 3.244a1.473 1.473 0 11-2.082 2.085l-3.178-3.095-2.886 3.075c-.29.3-.675.45-1.06.45a1.473 1.473 0 01-1.06-2.495l3.107-3.247c-2.23-.431-3.583-1.485-3.653-1.541a1.473 1.473 0 011.843-2.298c.014.01 1.429 1.074 3.71 1.075 2.28-.001 3.666-1.064 3.68-1.075a1.473 1.473 0 011.842 2.298z" fill="#CACACA"/></svg><svg fill="none" viewBox="0 0 12 12" id="icons-sprite--icon-map" xmlns="http://www.w3.org/2000/svg"><circle cx="6" cy="6" r="6" fill="#FF6E30"/></svg><svg fill="none" viewBox="0 0 148 29" id="icons-sprite--logo" xmlns="http://www.w3.org/2000/svg"><path d="M0 23V2h5.55v7.8h8.1V2h5.55v21h-5.55v-8.1h-8.1V23H0zM22.486 3.2c0-.72.27-1.32.81-1.8.54-.5 1.22-.75 2.04-.75.82 0 1.5.25 2.04.75.54.48.81 1.08.81 1.8 0 .7-.27 1.3-.81 1.8s-1.22.75-2.04.75c-.82 0-1.5-.25-2.04-.75s-.81-1.1-.81-1.8zm.3 19.8V7.4h5.1V23h-5.1zM32.454 20.63c-1.34-1.48-2.01-3.39-2.01-5.73 0-2.34.67-4.25 2.01-5.73 1.34-1.48 2.97-2.22 4.89-2.22 1.38 0 2.57.4 3.57 1.2.46.36.82.76 1.08 1.2h.3V7.4h5.1v21.3h-14.85v-4.05h9.75V20.6h-.3c-.28.44-.64.82-1.08 1.14-.98.74-2.17 1.11-3.57 1.11-1.92 0-3.55-.74-4.89-2.22zm4.14-8.37c-.6.64-.9 1.52-.9 2.64s.3 2 .9 2.64c.6.64 1.4.96 2.4.96s1.8-.32 2.4-.96c.6-.64.9-1.52.9-2.64s-.3-2-.9-2.64c-.6-.64-1.4-.96-2.4-.96s-1.8.32-2.4.96zM50.38 23V2h5.1v7.5h.3c.28-.48.64-.9 1.08-1.26 1.02-.86 2.21-1.29 3.57-1.29 1.84 0 3.27.56 4.29 1.68 1.04 1.1 1.56 2.69 1.56 4.77V23h-5.1v-8.85c0-.9-.24-1.6-.72-2.1s-1.14-.75-1.98-.75c-.86 0-1.58.32-2.16.96-.56.62-.84 1.45-.84 2.49V23h-5.1zM77.538 28.7V7.4h5.1v2.1h.3c.28-.46.66-.88 1.14-1.26 1.1-.86 2.27-1.29 3.51-1.29 1.92 0 3.55.76 4.89 2.28 1.34 1.5 2.01 3.49 2.01 5.97 0 2.48-.67 4.48-2.01 6-1.34 1.5-2.97 2.25-4.89 2.25-1.26 0-2.43-.42-3.51-1.26a4.61 4.61 0 01-1.14-1.29h-.3v7.8h-5.1zm6-16.38c-.6.68-.9 1.64-.9 2.88s.3 2.2.9 2.88c.6.68 1.4 1.02 2.4 1.02s1.8-.34 2.4-1.02c.6-.68.9-1.64.9-2.88s-.3-2.2-.9-2.88c-.6-.68-1.4-1.02-2.4-1.02s-1.8.34-2.4 1.02zM98.284 21.2c-1.34-1.52-2.01-3.52-2.01-6s.67-4.47 2.01-5.97c1.34-1.52 2.97-2.28 4.89-2.28 1.24 0 2.41.43 3.51 1.29.46.38.84.8 1.14 1.26h.3V7.4h5.1V23h-5.1v-2.1h-.3c-.28.48-.66.91-1.14 1.29-1.08.84-2.25 1.26-3.51 1.26-1.92 0-3.55-.75-4.89-2.25zm4.14-8.88c-.6.68-.9 1.64-.9 2.88s.3 2.2.9 2.88c.6.68 1.4 1.02 2.4 1.02s1.8-.34 2.4-1.02c.6-.68.9-1.64.9-2.88s-.3-2.2-.9-2.88c-.6-.68-1.4-1.02-2.4-1.02s-1.8.34-2.4 1.02zM115.31 17.9h5.1c.08.3.25.58.51.84.54.54 1.32.81 2.34.81 1.4 0 2.1-.35 2.1-1.05 0-.32-.2-.57-.6-.75-.4-.2-1-.4-1.8-.6-.66-.16-1.09-.26-1.29-.3-.2-.04-.62-.15-1.26-.33-.64-.2-1.1-.37-1.38-.51-.26-.16-.63-.38-1.11-.66-.46-.3-.8-.6-1.02-.9-.2-.32-.39-.71-.57-1.17-.18-.48-.27-.99-.27-1.53 0-1.32.59-2.45 1.77-3.39 1.18-.94 2.84-1.41 4.98-1.41 2.68 0 4.8.88 6.36 2.64a6.53 6.53 0 011.29 2.61h-4.95c-.12-.32-.26-.57-.42-.75-.46-.5-1.12-.75-1.98-.75-1.2 0-1.8.35-1.8 1.05 0 .34.2.6.6.78.4.18 1.01.35 1.83.51 2.06.48 3.45.9 4.17 1.26 1.8.88 2.7 2.23 2.7 4.05 0 1.44-.64 2.65-1.92 3.63-1.26.98-3.07 1.47-5.43 1.47-2.9 0-5.11-.92-6.63-2.76a6.113 6.113 0 01-1.32-2.79zM131.951 17.9h5.1c.08.3.25.58.51.84.54.54 1.32.81 2.34.81 1.4 0 2.1-.35 2.1-1.05 0-.32-.2-.57-.6-.75-.4-.2-1-.4-1.8-.6-.66-.16-1.09-.26-1.29-.3-.2-.04-.62-.15-1.26-.33-.64-.2-1.1-.37-1.38-.51-.26-.16-.63-.38-1.11-.66-.46-.3-.8-.6-1.02-.9-.2-.32-.39-.71-.57-1.17-.18-.48-.27-.99-.27-1.53 0-1.32.59-2.45 1.77-3.39 1.18-.94 2.84-1.41 4.98-1.41 2.68 0 4.8.88 6.36 2.64a6.53 6.53 0 011.29 2.61h-4.95c-.12-.32-.26-.57-.42-.75-.46-.5-1.12-.75-1.98-.75-1.2 0-1.8.35-1.8 1.05 0 .34.2.6.6.78.4.18 1.01.35 1.83.51 2.06.48 3.45.9 4.17 1.26 1.8.88 2.7 2.23 2.7 4.05 0 1.44-.64 2.65-1.92 3.63-1.26.98-3.07 1.47-5.43 1.47-2.9 0-5.11-.92-6.63-2.76a6.113 6.113 0 01-1.32-2.79z" fill="#fff"/></svg><svg fill="none" viewBox="0 0 148 29" id="icons-sprite--logo-1920" xmlns="http://www.w3.org/2000/svg"><path d="M0 23V2h5.55v7.8h8.1V2h5.55v21h-5.55v-8.1h-8.1V23H0zM22.486 3.2c0-.72.27-1.32.81-1.8.54-.5 1.22-.75 2.04-.75.82 0 1.5.25 2.04.75.54.48.81 1.08.81 1.8 0 .7-.27 1.3-.81 1.8s-1.22.75-2.04.75c-.82 0-1.5-.25-2.04-.75s-.81-1.1-.81-1.8zm.3 19.8V7.4h5.1V23h-5.1zM32.454 20.63c-1.34-1.48-2.01-3.39-2.01-5.73 0-2.34.67-4.25 2.01-5.73 1.34-1.48 2.97-2.22 4.89-2.22 1.38 0 2.57.4 3.57 1.2.46.36.82.76 1.08 1.2h.3V7.4h5.1v21.3h-14.85v-4.05h9.75V20.6h-.3c-.28.44-.64.82-1.08 1.14-.98.74-2.17 1.11-3.57 1.11-1.92 0-3.55-.74-4.89-2.22zm4.14-8.37c-.6.64-.9 1.52-.9 2.64s.3 2 .9 2.64c.6.64 1.4.96 2.4.96s1.8-.32 2.4-.96c.6-.64.9-1.52.9-2.64s-.3-2-.9-2.64c-.6-.64-1.4-.96-2.4-.96s-1.8.32-2.4.96zM50.38 23V2h5.1v7.5h.3c.28-.48.64-.9 1.08-1.26 1.02-.86 2.21-1.29 3.57-1.29 1.84 0 3.27.56 4.29 1.68 1.04 1.1 1.56 2.69 1.56 4.77V23h-5.1v-8.85c0-.9-.24-1.6-.72-2.1s-1.14-.75-1.98-.75c-.86 0-1.58.32-2.16.96-.56.62-.84 1.45-.84 2.49V23h-5.1zM77.538 28.7V7.4h5.1v2.1h.3c.28-.46.66-.88 1.14-1.26 1.1-.86 2.27-1.29 3.51-1.29 1.92 0 3.55.76 4.89 2.28 1.34 1.5 2.01 3.49 2.01 5.97 0 2.48-.67 4.48-2.01 6-1.34 1.5-2.97 2.25-4.89 2.25-1.26 0-2.43-.42-3.51-1.26a4.61 4.61 0 01-1.14-1.29h-.3v7.8h-5.1zm6-16.38c-.6.68-.9 1.64-.9 2.88s.3 2.2.9 2.88c.6.68 1.4 1.02 2.4 1.02s1.8-.34 2.4-1.02c.6-.68.9-1.64.9-2.88s-.3-2.2-.9-2.88c-.6-.68-1.4-1.02-2.4-1.02s-1.8.34-2.4 1.02zM98.284 21.2c-1.34-1.52-2.01-3.52-2.01-6s.67-4.47 2.01-5.97c1.34-1.52 2.97-2.28 4.89-2.28 1.24 0 2.41.43 3.51 1.29.46.38.84.8 1.14 1.26h.3V7.4h5.1V23h-5.1v-2.1h-.3c-.28.48-.66.91-1.14 1.29-1.08.84-2.25 1.26-3.51 1.26-1.92 0-3.55-.75-4.89-2.25zm4.14-8.88c-.6.68-.9 1.64-.9 2.88s.3 2.2.9 2.88c.6.68 1.4 1.02 2.4 1.02s1.8-.34 2.4-1.02c.6-.68.9-1.64.9-2.88s-.3-2.2-.9-2.88c-.6-.68-1.4-1.02-2.4-1.02s-1.8.34-2.4 1.02zM115.31 17.9h5.1c.08.3.25.58.51.84.54.54 1.32.81 2.34.81 1.4 0 2.1-.35 2.1-1.05 0-.32-.2-.57-.6-.75-.4-.2-1-.4-1.8-.6-.66-.16-1.09-.26-1.29-.3-.2-.04-.62-.15-1.26-.33-.64-.2-1.1-.37-1.38-.51-.26-.16-.63-.38-1.11-.66-.46-.3-.8-.6-1.02-.9-.2-.32-.39-.71-.57-1.17-.18-.48-.27-.99-.27-1.53 0-1.32.59-2.45 1.77-3.39 1.18-.94 2.84-1.41 4.98-1.41 2.68 0 4.8.88 6.36 2.64a6.53 6.53 0 011.29 2.61h-4.95c-.12-.32-.26-.57-.42-.75-.46-.5-1.12-.75-1.98-.75-1.2 0-1.8.35-1.8 1.05 0 .34.2.6.6.78.4.18 1.01.35 1.83.51 2.06.48 3.45.9 4.17 1.26 1.8.88 2.7 2.23 2.7 4.05 0 1.44-.64 2.65-1.92 3.63-1.26.98-3.07 1.47-5.43 1.47-2.9 0-5.11-.92-6.63-2.76a6.113 6.113 0 01-1.32-2.79zM131.951 17.9h5.1c.08.3.25.58.51.84.54.54 1.32.81 2.34.81 1.4 0 2.1-.35 2.1-1.05 0-.32-.2-.57-.6-.75-.4-.2-1-.4-1.8-.6-.66-.16-1.09-.26-1.29-.3-.2-.04-.62-.15-1.26-.33-.64-.2-1.1-.37-1.38-.51-.26-.16-.63-.38-1.11-.66-.46-.3-.8-.6-1.02-.9-.2-.32-.39-.71-.57-1.17-.18-.48-.27-.99-.27-1.53 0-1.32.59-2.45 1.77-3.39 1.18-.94 2.84-1.41 4.98-1.41 2.68 0 4.8.88 6.36 2.64a6.53 6.53 0 011.29 2.61h-4.95c-.12-.32-.26-.57-.42-.75-.46-.5-1.12-.75-1.98-.75-1.2 0-1.8.35-1.8 1.05 0 .34.2.6.6.78.4.18 1.01.35 1.83.51 2.06.48 3.45.9 4.17 1.26 1.8.88 2.7 2.23 2.7 4.05 0 1.44-.64 2.65-1.92 3.63-1.26.98-3.07 1.47-5.43 1.47-2.9 0-5.11-.92-6.63-2.76a6.113 6.113 0 01-1.32-2.79z" fill="#fff"/></svg><svg fill="none" viewBox="0 0 129 25" id="icons-sprite--logo-desktop" xmlns="http://www.w3.org/2000/svg"><path d="M.519 19.813V1.49h4.843v6.806h7.067V1.49h4.843v18.323h-4.843v-7.067H5.362v7.067H.519zM20.139 2.537c0-.628.235-1.152.707-1.57.47-.437 1.064-.655 1.78-.655.715 0 1.308.218 1.78.655.47.418.706.942.706 1.57 0 .61-.235 1.134-.707 1.57-.47.437-1.064.655-1.78.655-.715 0-1.308-.218-1.78-.654-.47-.437-.706-.96-.706-1.57zm.262 17.276V6.202h4.45v13.611H20.4zM28.836 17.745c-1.169-1.291-1.753-2.958-1.753-5 0-2.04.584-3.707 1.753-4.999 1.17-1.291 2.592-1.937 4.267-1.937 1.204 0 2.242.35 3.115 1.047.401.314.715.663.942 1.047h.262V6.202h4.45v18.585H28.915v-3.534h8.507v-3.534h-.262a3.642 3.642 0 01-.942.995c-.855.646-1.893.968-3.115.968-1.675 0-3.098-.645-4.267-1.937zm3.613-7.303c-.524.559-.786 1.326-.786 2.304 0 .977.262 1.745.786 2.303.523.559 1.221.838 2.094.838.872 0 1.57-.28 2.094-.838.523-.558.785-1.326.785-2.303 0-.978-.262-1.745-.785-2.304-.524-.558-1.222-.837-2.094-.837-.873 0-1.57.279-2.094.837zM44.477 19.813V1.49h4.45v6.544h.262c.244-.419.558-.785.942-1.1.89-.75 1.929-1.125 3.115-1.125 1.606 0 2.853.489 3.743 1.466.908.96 1.362 2.347 1.362 4.162v8.376H53.9v-7.722c0-.785-.21-1.396-.629-1.832-.418-.436-.994-.654-1.727-.654-.75 0-1.379.279-1.885.837-.488.541-.733 1.265-.733 2.173v7.198h-4.45zM68.174 24.787V6.202h4.45v1.832h.261c.245-.401.576-.768.995-1.1.96-.75 1.98-1.125 3.063-1.125 1.675 0 3.097.663 4.266 1.99 1.17 1.308 1.754 3.045 1.754 5.208 0 2.164-.584 3.91-1.754 5.236-1.169 1.309-2.591 1.963-4.266 1.963-1.1 0-2.12-.366-3.063-1.1a4.021 4.021 0 01-.995-1.125h-.261v6.806h-4.45zm5.235-14.292c-.524.593-.785 1.43-.785 2.513 0 1.082.261 1.92.785 2.512.523.594 1.221.89 2.094.89.873 0 1.57-.296 2.094-.89.524-.593.785-1.43.785-2.512s-.261-1.92-.785-2.513c-.523-.594-1.221-.89-2.094-.89-.873 0-1.57.296-2.094.89zM86.275 18.243c-1.169-1.326-1.754-3.072-1.754-5.235 0-2.164.585-3.9 1.754-5.21 1.17-1.326 2.592-1.989 4.267-1.989 1.082 0 2.103.375 3.063 1.126a4.9 4.9 0 01.994 1.1h.262V6.201h4.45v13.611h-4.45v-1.832h-.262a4.021 4.021 0 01-.995 1.125c-.942.733-1.963 1.1-3.062 1.1-1.675 0-3.098-.654-4.267-1.963zm3.612-7.748c-.523.593-.785 1.43-.785 2.513 0 1.082.262 1.92.785 2.512.524.594 1.222.89 2.095.89.872 0 1.57-.296 2.094-.89.523-.593.785-1.43.785-2.512s-.262-1.92-.785-2.513c-.524-.594-1.222-.89-2.094-.89-.873 0-1.571.296-2.094.89zM101.131 15.363h4.45c.07.262.218.507.445.733.471.471 1.152.707 2.042.707 1.221 0 1.832-.305 1.832-.916 0-.28-.175-.497-.524-.655-.349-.174-.872-.348-1.57-.523a37.01 37.01 0 00-1.126-.262c-.174-.035-.541-.13-1.099-.288-.559-.174-.96-.323-1.204-.445-.227-.14-.55-.331-.969-.576-.401-.261-.698-.523-.89-.785-.174-.28-.34-.62-.497-1.02a3.772 3.772 0 01-.236-1.336c0-1.151.515-2.137 1.545-2.958 1.029-.82 2.478-1.23 4.345-1.23 2.338 0 4.188.768 5.549 2.304a5.706 5.706 0 011.126 2.277h-4.319a2.079 2.079 0 00-.367-.654c-.401-.437-.977-.655-1.727-.655-1.047 0-1.571.306-1.571.916 0 .297.175.524.524.68.349.158.881.306 1.596.446 1.798.419 3.011.785 3.639 1.1 1.57.767 2.356 1.945 2.356 3.533 0 1.256-.559 2.312-1.676 3.167-1.099.855-2.678 1.283-4.737 1.283-2.531 0-4.459-.803-5.785-2.408a5.323 5.323 0 01-1.152-2.435zM115.65 15.363h4.45c.07.262.218.507.445.733.471.471 1.152.707 2.042.707 1.222 0 1.832-.305 1.832-.916 0-.28-.174-.497-.523-.655-.349-.174-.873-.348-1.571-.523-.576-.14-.951-.227-1.125-.262-.175-.035-.541-.13-1.1-.288-.558-.174-.959-.323-1.204-.445-.227-.14-.549-.331-.968-.576-.402-.261-.698-.523-.89-.785a6.154 6.154 0 01-.498-1.02 3.771 3.771 0 01-.235-1.336c0-1.151.515-2.137 1.544-2.958 1.03-.82 2.478-1.23 4.345-1.23 2.339 0 4.189.768 5.55 2.304a5.691 5.691 0 011.125 2.277h-4.319a2.078 2.078 0 00-.366-.654c-.402-.437-.977-.655-1.728-.655-1.047 0-1.57.306-1.57.916 0 .297.174.524.523.68.349.158.881.306 1.597.446 1.797.419 3.01.785 3.638 1.1 1.571.767 2.356 1.945 2.356 3.533 0 1.256-.558 2.312-1.675 3.167-1.1.855-2.679 1.283-4.738 1.283-2.53 0-4.459-.803-5.785-2.408a5.343 5.343 0 01-1.152-2.435z" fill="#fff"/></svg><svg fill="none" viewBox="0 0 18 18" id="icons-sprite--phone" xmlns="http://www.w3.org/2000/svg"><path d="M16.343 12.098a10.49 10.49 0 01-3.236-.513.896.896 0 00-.926.22l-1.44 1.806c-2.593-1.238-5.023-3.575-6.315-6.261l1.787-1.522a.935.935 0 00.22-.935 10.223 10.223 0 01-.513-3.236.916.916 0 00-.907-.907H1.84C1.346.75.75.97.75 1.657c0 8.516 7.086 15.593 15.593 15.593.65 0 .907-.578.907-1.082v-3.162a.916.916 0 00-.907-.908z" fill="#FF6E30"/></svg><svg viewBox="0 0 48 48" id="icons-sprite--right-arrow" xmlns="http://www.w3.org/2000/svg"><path d="M17.17 32.92l9.17-9.17-9.17-9.17L20 11.75l12 12-12 12z" fill="#fff" class="jfill-000000"/><path d="M0-.25h48v48H0z" fill="none"/></svg><svg fill="none" viewBox="0 0 25 25" id="icons-sprite--search" xmlns="http://www.w3.org/2000/svg"><path d="M24.911 22.814l-5.057-4.457c1.487-1.98 2.292-4.403 2.292-6.95 0-3.05-1.156-5.909-3.245-8.065C16.812 1.186 14.03 0 11.073 0c-2.957 0-5.74 1.19-7.829 3.342C1.152 5.494 0 8.357 0 11.407c0 3.045 1.155 5.912 3.244 8.064 2.09 2.156 4.869 3.343 7.829 3.343 2.473 0 4.82-.83 6.743-2.358l5.058 4.453a.3.3 0 00.214.091.294.294 0 00.214-.091l1.61-1.654a.312.312 0 00.088-.22.319.319 0 00-.089-.221zM16.92 17.43c-1.565 1.608-3.639 2.494-5.846 2.494-2.207 0-4.282-.886-5.847-2.494a8.603 8.603 0 01-2.42-6.023c0-2.274.86-4.415 2.42-6.023 1.565-1.608 3.64-2.494 5.847-2.494 2.207 0 4.285.882 5.846 2.494a8.602 8.602 0 012.422 6.023c0 2.274-.86 4.414-2.422 6.023z" fill="#fff"/></svg><svg viewBox="0 0 32 32" id="icons-sprite--up-arrow" xmlns="http://www.w3.org/2000/svg"><path d="M24 21a1 1 0 01-.71-.29L16 13.41l-7.29 7.3a1 1 0 11-1.42-1.42l8-8a1 1 0 011.42 0l8 8a1 1 0 010 1.42A1 1 0 0124 21z" data-name="Layer 2" fill="#fff" class="lfill-000000"/><path d="M0 0h32v32H0z" fill="none"/></svg><svg fill="none" viewBox="0 0 30 30" id="icons-sprite--vk" xmlns="http://www.w3.org/2000/svg"><path d="M15 0C6.716 0 0 6.716 0 15c0 8.284 6.716 15 15 15 8.284 0 15-6.716 15-15 0-8.284-6.716-15-15-15zm7.609 16.622c.699.683 1.439 1.326 2.066 2.08.278.333.54.677.74 1.065.285.553.027 1.159-.467 1.192l-3.073-.001c-.794.066-1.426-.255-1.958-.797-.425-.433-.82-.894-1.229-1.342a2.871 2.871 0 00-.553-.492c-.42-.272-.783-.189-1.023.249-.245.445-.3.939-.324 1.434-.033.725-.252.914-.979.948-1.553.073-3.028-.163-4.398-.946-1.208-.69-2.144-1.666-2.959-2.77-1.587-2.152-2.803-4.514-3.895-6.944-.246-.547-.066-.84.538-.85a85.522 85.522 0 013.009-.002c.408.007.678.24.835.625.542 1.334 1.206 2.603 2.039 3.78.222.313.448.625.77.846.357.245.628.164.796-.233.107-.253.154-.523.177-.794.08-.927.09-1.854-.049-2.777-.086-.578-.41-.951-.987-1.06-.293-.056-.25-.165-.108-.332.248-.29.48-.47.944-.47h3.472c.547.107.67.353.744.904l.003 3.859c-.006.213.107.845.49.985.307.101.51-.145.693-.34.833-.883 1.426-1.926 1.957-3.005.235-.476.437-.969.634-1.462.146-.365.373-.545.785-.539l3.343.004c.099 0 .199.001.296.018.564.097.718.339.544.889-.275.863-.808 1.583-1.329 2.304-.558.772-1.154 1.517-1.707 2.293-.508.709-.468 1.066.163 1.681z" fill="#CACACA"/></svg><svg fill="none" viewBox="0 0 10 10" id="icons-sprite--x" xmlns="http://www.w3.org/2000/svg"><path fill="#fff" d="M1.207.5l8.485 8.485-.707.707L.5 1.207z"/><path fill="#fff" d="M.59 8.985L9.077.5l.707.707-8.485 8.486z"/></svg></svg>