<svg width="129" height="25" fill="none" xmlns="http://www.w3.org/2000/svg"><path d="M.519 19.813V1.49h4.843v6.806h7.067V1.49h4.843v18.323h-4.843v-7.067H5.362v7.067H.519zm19.62-17.276c0-.628.235-1.152.707-1.57.47-.437 1.064-.655 1.78-.655.715 0 1.308.218 1.78.655.47.418.706.942.706 1.57 0 .61-.235 1.134-.707 1.57-.47.437-1.064.655-1.78.655-.715 0-1.308-.218-1.78-.654-.47-.437-.706-.96-.706-1.57zm.262 17.276V6.202h4.45v13.611H20.4zm8.435-2.068c-1.169-1.291-1.753-2.958-1.753-5 0-2.04.584-3.707 1.753-4.999 1.17-1.291 2.592-1.937 4.267-1.937 1.204 0 2.242.35 3.115 1.047.401.314.715.663.942 1.047h.262V6.202h4.45v18.585H28.915v-3.534h8.507v-3.534h-.262a3.642 3.642 0 01-.942.995c-.855.646-1.893.968-3.115.968-1.675 0-3.098-.645-4.267-1.937zm3.613-7.303c-.524.559-.786 1.326-.786 2.304 0 .977.262 1.745.786 2.303.523.559 1.221.838 2.094.838.872 0 1.57-.28 2.094-.838.523-.558.785-1.326.785-2.303 0-.978-.262-1.745-.785-2.304-.524-.558-1.222-.837-2.094-.837-.873 0-1.57.279-2.094.837zm12.028 9.371V1.49h4.45v6.544h.262a4.05 4.05 0 01.942-1.1c.89-.75 1.929-1.125 3.115-1.125 1.606 0 2.853.489 3.743 1.466.908.96 1.362 2.347 1.362 4.162v8.376H53.9v-7.722c0-.785-.21-1.396-.629-1.832-.418-.436-.994-.654-1.727-.654-.75 0-1.379.279-1.885.837-.488.541-.733 1.265-.733 2.173v7.198h-4.45zm23.697 4.974V6.202h4.45v1.832h.261c.245-.401.576-.768.995-1.1.96-.75 1.98-1.125 3.063-1.125 1.675 0 3.097.663 4.266 1.99 1.17 1.308 1.754 3.045 1.754 5.208 0 2.164-.584 3.91-1.754 5.236-1.169 1.309-2.591 1.963-4.266 1.963-1.1 0-2.12-.366-3.063-1.1a4.021 4.021 0 01-.995-1.125h-.261v6.806h-4.45zm5.235-14.292c-.524.593-.785 1.43-.785 2.513 0 1.082.261 1.92.785 2.512.523.594 1.221.89 2.094.89.873 0 1.57-.296 2.094-.89.524-.593.785-1.43.785-2.512s-.261-1.92-.785-2.513c-.523-.594-1.221-.89-2.094-.89-.873 0-1.57.296-2.094.89zm12.866 7.748c-1.169-1.326-1.754-3.072-1.754-5.235 0-2.164.585-3.9 1.754-5.21 1.17-1.326 2.592-1.989 4.267-1.989 1.082 0 2.103.375 3.063 1.126a4.9 4.9 0 01.994 1.1h.262V6.201h4.45v13.611h-4.45V17.98h-.262a4.021 4.021 0 01-.995 1.125c-.942.733-1.963 1.1-3.062 1.1-1.675 0-3.098-.654-4.267-1.963zm3.612-7.748c-.523.593-.785 1.43-.785 2.513 0 1.082.262 1.92.785 2.512.524.594 1.222.89 2.095.89.872 0 1.57-.296 2.094-.89.523-.593.785-1.43.785-2.512s-.262-1.92-.785-2.513c-.524-.594-1.222-.89-2.094-.89-.873 0-1.571.296-2.094.89zm11.244 4.868h4.45c.07.262.218.507.445.733.471.471 1.152.707 2.042.707 1.221 0 1.832-.305 1.832-.916 0-.28-.175-.497-.524-.655-.349-.174-.872-.348-1.57-.523a37.01 37.01 0 00-1.126-.262c-.174-.035-.541-.13-1.099-.288-.559-.174-.96-.323-1.204-.445a52.83 52.83 0 00-.969-.576c-.401-.261-.698-.523-.89-.785a6.31 6.31 0 01-.497-1.02 3.772 3.772 0 01-.236-1.336c0-1.151.515-2.137 1.545-2.958 1.029-.82 2.478-1.23 4.345-1.23 2.338 0 4.188.768 5.549 2.304a5.706 5.706 0 011.126 2.277h-4.319a2.079 2.079 0 00-.367-.654c-.401-.437-.977-.655-1.727-.655-1.047 0-1.571.306-1.571.916 0 .297.175.524.524.68.349.158.881.306 1.596.446 1.798.419 3.011.785 3.639 1.1 1.57.767 2.356 1.945 2.356 3.533 0 1.256-.559 2.312-1.676 3.167-1.099.855-2.678 1.283-4.737 1.283-2.531 0-4.459-.803-5.785-2.408a5.323 5.323 0 01-1.152-2.435zm14.519 0h4.45c.07.262.218.507.445.733.471.471 1.152.707 2.042.707 1.222 0 1.832-.305 1.832-.916 0-.28-.174-.497-.523-.655-.349-.174-.873-.348-1.571-.523-.576-.14-.951-.227-1.125-.262a18.44 18.44 0 01-1.1-.288c-.558-.174-.959-.323-1.204-.445a52.09 52.09 0 00-.968-.576c-.402-.261-.698-.523-.89-.785a6.154 6.154 0 01-.498-1.02 3.771 3.771 0 01-.235-1.336c0-1.151.515-2.137 1.544-2.958 1.03-.82 2.478-1.23 4.345-1.23 2.339 0 4.189.768 5.55 2.304a5.691 5.691 0 011.125 2.277h-4.319a2.078 2.078 0 00-.366-.654c-.402-.437-.977-.655-1.728-.655-1.047 0-1.57.306-1.57.916 0 .297.174.524.523.68.349.158.881.306 1.597.446 1.797.419 3.01.785 3.638 1.1 1.571.767 2.356 1.945 2.356 3.533 0 1.256-.558 2.312-1.675 3.167-1.1.855-2.679 1.283-4.738 1.283-2.53 0-4.459-.803-5.785-2.408a5.343 5.343 0 01-1.152-2.435z" fill="#fff"/></svg>