<svg width="129" height="25" viewBox="0 0 129 25" fill="none" xmlns="http://www.w3.org/2000/svg">
<path d="M0.519043 19.8133V1.49011H5.3616V8.29587H12.4291V1.49011H17.2717V19.8133H12.4291V12.7458H5.3616V19.8133H0.519043Z" fill="white"/>
<path d="M20.1388 2.53715C20.1388 1.90893 20.3743 1.38541 20.8455 0.966595C21.3167 0.530328 21.91 0.312195 22.6255 0.312195C23.341 0.312195 23.9343 0.530328 24.4054 0.966595C24.8766 1.38541 25.1122 1.90893 25.1122 2.53715C25.1122 3.14793 24.8766 3.67145 24.4054 4.10771C23.9343 4.54398 23.341 4.76211 22.6255 4.76211C21.91 4.76211 21.3167 4.54398 20.8455 4.10771C20.3743 3.67145 20.1388 3.14793 20.1388 2.53715ZM20.4005 19.8133V6.20179H24.8504V19.8133H20.4005Z" fill="white"/>
<path d="M28.8363 17.7454C27.6671 16.454 27.0825 14.7875 27.0825 12.7458C27.0825 10.7041 27.6671 9.03752 28.8363 7.74617C30.0055 6.45482 31.4278 5.80915 33.103 5.80915C34.3071 5.80915 35.3454 6.15816 36.218 6.85619C36.6193 7.1703 36.9334 7.51931 37.1603 7.90323H37.4221V6.20179H41.872V24.7867H28.9149V21.253H37.4221V17.7192H37.1603C36.916 18.1031 36.6019 18.4347 36.218 18.7139C35.3629 19.3596 34.3246 19.6824 33.103 19.6824C31.4278 19.6824 30.0055 19.0367 28.8363 17.7454ZM32.4486 10.4423C31.9251 11.0007 31.6633 11.7685 31.6633 12.7458C31.6633 13.723 31.9251 14.4908 32.4486 15.0493C32.9721 15.6077 33.6702 15.8869 34.5427 15.8869C35.4152 15.8869 36.1133 15.6077 36.6368 15.0493C37.1603 14.4908 37.4221 13.723 37.4221 12.7458C37.4221 11.7685 37.1603 11.0007 36.6368 10.4423C36.1133 9.88388 35.4152 9.60467 34.5427 9.60467C33.6702 9.60467 32.9721 9.88388 32.4486 10.4423Z" fill="white"/>
<path d="M44.4773 19.8133V1.49011H48.9272V8.03411H49.189C49.4333 7.61529 49.7474 7.24883 50.1313 6.93472C51.0213 6.18434 52.0596 5.80915 53.2463 5.80915C54.8517 5.80915 56.0994 6.29777 56.9894 7.27501C57.8969 8.23479 58.3506 9.62212 58.3506 11.437V19.8133H53.9007V12.0914C53.9007 11.3061 53.6912 10.6953 53.2724 10.2591C52.8536 9.8228 52.2777 9.60467 51.5448 9.60467C50.7944 9.60467 50.1662 9.88388 49.6601 10.4423C49.1715 10.9833 48.9272 11.7075 48.9272 12.6149V19.8133H44.4773Z" fill="white"/>
<path d="M68.1737 24.7867V6.20179H72.6236V8.03411H72.8854C73.1297 7.63274 73.4613 7.26628 73.8801 6.93472C74.8399 6.18434 75.8607 5.80915 76.9427 5.80915C78.6179 5.80915 80.0402 6.47228 81.2094 7.79853C82.3785 9.10732 82.9631 10.8437 82.9631 13.0075C82.9631 15.1714 82.3785 16.9165 81.2094 18.2427C80.0402 19.5515 78.6179 20.2059 76.9427 20.2059C75.8433 20.2059 74.8224 19.8395 73.8801 19.1065C73.4613 18.775 73.1297 18.3998 72.8854 17.981H72.6236V24.7867H68.1737ZM73.4089 10.4947C72.8854 11.088 72.6236 11.9256 72.6236 13.0075C72.6236 14.0895 72.8854 14.9271 73.4089 15.5204C73.9324 16.1138 74.6305 16.4104 75.503 16.4104C76.3755 16.4104 77.0736 16.1138 77.5971 15.5204C78.1206 14.9271 78.3824 14.0895 78.3824 13.0075C78.3824 11.9256 78.1206 11.088 77.5971 10.4947C77.0736 9.90133 76.3755 9.60467 75.503 9.60467C74.6305 9.60467 73.9324 9.90133 73.4089 10.4947Z" fill="white"/>
<path d="M86.2752 18.2427C85.106 16.9165 84.5214 15.1714 84.5214 13.0075C84.5214 10.8437 85.106 9.10732 86.2752 7.79853C87.4444 6.47228 88.8666 5.80915 90.5419 5.80915C91.6239 5.80915 92.6447 6.18434 93.6045 6.93472C94.0059 7.26628 94.3374 7.63274 94.5992 8.03411H94.8609V6.20179H99.3109V19.8133H94.8609V17.981H94.5992C94.3549 18.3998 94.0233 18.775 93.6045 19.1065C92.6622 19.8395 91.6413 20.2059 90.5419 20.2059C88.8666 20.2059 87.4444 19.5515 86.2752 18.2427ZM89.8875 10.4947C89.364 11.088 89.1022 11.9256 89.1022 13.0075C89.1022 14.0895 89.364 14.9271 89.8875 15.5204C90.411 16.1138 91.1091 16.4104 91.9816 16.4104C92.8541 16.4104 93.5521 16.1138 94.0757 15.5204C94.5992 14.9271 94.8609 14.0895 94.8609 13.0075C94.8609 11.9256 94.5992 11.088 94.0757 10.4947C93.5521 9.90133 92.8541 9.60467 91.9816 9.60467C91.1091 9.60467 90.411 9.90133 89.8875 10.4947Z" fill="white"/>
<path d="M101.131 15.3634H105.581C105.651 15.6251 105.799 15.8695 106.026 16.0963C106.497 16.5675 107.178 16.8031 108.068 16.8031C109.289 16.8031 109.9 16.4977 109.9 15.8869C109.9 15.6077 109.725 15.3896 109.376 15.2325C109.027 15.058 108.504 14.8835 107.806 14.709C107.23 14.5694 106.855 14.4821 106.68 14.4472C106.506 14.4123 106.139 14.3163 105.581 14.1593C105.022 13.9848 104.621 13.8365 104.377 13.7143C104.15 13.5747 103.827 13.3827 103.408 13.1384C103.007 12.8767 102.71 12.6149 102.518 12.3531C102.344 12.0739 102.178 11.7336 102.021 11.3323C101.864 10.9135 101.785 10.4685 101.785 9.99731C101.785 8.84557 102.3 7.8596 103.33 7.03942C104.359 6.21924 105.808 5.80915 107.675 5.80915C110.013 5.80915 111.863 6.57698 113.224 8.11264C113.765 8.77576 114.14 9.53487 114.35 10.3899H110.031C109.926 10.1107 109.804 9.8926 109.664 9.73555C109.263 9.29928 108.687 9.08115 107.937 9.08115C106.89 9.08115 106.366 9.38654 106.366 9.99731C106.366 10.294 106.541 10.5208 106.89 10.6779C107.239 10.8349 107.771 10.9833 108.486 11.1229C110.284 11.5417 111.497 11.9082 112.125 12.2223C113.695 12.9901 114.481 14.168 114.481 15.756C114.481 17.0125 113.922 18.0682 112.805 18.9233C111.706 19.7784 110.127 20.2059 108.068 20.2059C105.537 20.2059 103.609 19.4032 102.283 17.7978C101.689 17.0823 101.305 16.2708 101.131 15.3634Z" fill="white"/>
<path d="M115.65 15.3634H120.1C120.17 15.6251 120.318 15.8695 120.545 16.0963C121.016 16.5675 121.697 16.8031 122.587 16.8031C123.809 16.8031 124.419 16.4977 124.419 15.8869C124.419 15.6077 124.245 15.3896 123.896 15.2325C123.547 15.058 123.023 14.8835 122.325 14.709C121.749 14.5694 121.374 14.4821 121.2 14.4472C121.025 14.4123 120.659 14.3163 120.1 14.1593C119.542 13.9848 119.141 13.8365 118.896 13.7143C118.669 13.5747 118.347 13.3827 117.928 13.1384C117.526 12.8767 117.23 12.6149 117.038 12.3531C116.863 12.0739 116.697 11.7336 116.54 11.3323C116.383 10.9135 116.305 10.4685 116.305 9.99731C116.305 8.84557 116.82 7.8596 117.849 7.03942C118.879 6.21924 120.327 5.80915 122.194 5.80915C124.533 5.80915 126.383 6.57698 127.744 8.11264C128.285 8.77576 128.66 9.53487 128.869 10.3899H124.55C124.446 10.1107 124.323 9.8926 124.184 9.73555C123.782 9.29928 123.207 9.08115 122.456 9.08115C121.409 9.08115 120.886 9.38654 120.886 9.99731C120.886 10.294 121.06 10.5208 121.409 10.6779C121.758 10.8349 122.29 10.9833 123.006 11.1229C124.803 11.5417 126.016 11.9082 126.644 12.2223C128.215 12.9901 129 14.168 129 15.756C129 17.0125 128.442 18.0682 127.325 18.9233C126.225 19.7784 124.646 20.2059 122.587 20.2059C120.057 20.2059 118.128 19.4032 116.802 17.7978C116.209 17.0823 115.825 16.2708 115.65 15.3634Z" fill="white"/>
</svg>
